<?xml version="1.0" encoding="UTF-8" standalone="no"?>
<svg
   xmlns:dc="http://purl.org/dc/elements/1.1/"
   xmlns:cc="http://creativecommons.org/ns#"
   xmlns:rdf="http://www.w3.org/1999/02/22-rdf-syntax-ns#"
   xmlns:svg="http://www.w3.org/2000/svg"
   xmlns="http://www.w3.org/2000/svg"
   viewBox="0 0 1333.3333 1333.3333"
   height="1333.3333"
   width="1333.3333"
   xml:space="preserve"
   id="svg2"
   version="1.1"><metadata
     id="metadata8"><rdf:RDF><cc:Work
         rdf:about=""><dc:format>image/svg+xml</dc:format><dc:type
           rdf:resource="http://purl.org/dc/dcmitype/StillImage" /></cc:Work></rdf:RDF></metadata><defs
     id="defs6"><clipPath
       id="clipPath34"
       clipPathUnits="userSpaceOnUse"><path
         id="path32"
         d="M 0,1000 H 1000 V 0 H 0 Z" /></clipPath></defs><g
     transform="matrix(1.3333333,0,0,-1.3333333,0,1333.3333)"
     id="g10"><g
       transform="translate(123.1886,309.9462)"
       id="g12"><path
         id="path14"
         style="fill:#ffffff;fill-opacity:1;fill-rule:nonzero;stroke:none"
         d="M 0,0 H -63.724 V 396.818 L 0,455.907 Z" /></g><g
       transform="translate(123.1886,309.9462)"
       id="g16"><path
         id="path18"
         style="fill:none;stroke:#373535;stroke-width:1;stroke-linecap:butt;stroke-linejoin:miter;stroke-miterlimit:10;stroke-dasharray:none;stroke-opacity:1"
         d="M 0,0 H -63.724 V 396.818 L 0,455.907 Z" /></g><g
       transform="translate(123.1886,850.765)"
       id="g20"><path
         id="path22"
         style="fill:#e9589f;fill-opacity:1;fill-rule:nonzero;stroke:none"
         d="M 0,0 -63.724,-61 V 75.5 H 0 Z" /></g><g
       transform="translate(123.1886,850.765)"
       id="g24"><path
         id="path26"
         style="fill:none;stroke:#373535;stroke-width:1;stroke-linecap:butt;stroke-linejoin:miter;stroke-miterlimit:10;stroke-dasharray:none;stroke-opacity:1"
         d="M 0,0 -63.724,-61 V 75.5 H 0 Z" /></g><g
       id="g28"><g
         clip-path="url(#clipPath34)"
         id="g30"><g
           transform="translate(363.095,735.425)"
           id="g36"><path
             id="path38"
             style="fill:#ffffff;fill-opacity:1;fill-rule:nonzero;stroke:none"
             d="m 0,0 v 60.72 h -99.16 v 131.46 h -63.73 v -491.25 c 0,-30.4 19.13,-80.11 63.73,-107.24 14.81,-9.02 32.44,-15.55 53.11,-18.04 6.07,-0.74 12.41,-1.13 19.02,-1.13 9.13,0 18.04,0 26.65,0.24 v 61.95 c -6.07,-0.21 -12.68,-0.31 -19.89,-0.31 -9.28,0 -17.9,1.73 -25.78,4.78 -33.19,12.82 -53.11,49.06 -53.11,78.18 V 0 Z" /></g><g
           transform="translate(363.095,735.425)"
           id="g40"><path
             id="path42"
             style="fill:none;stroke:#373535;stroke-width:1;stroke-linecap:butt;stroke-linejoin:miter;stroke-miterlimit:10;stroke-dasharray:none;stroke-opacity:1"
             d="m 0,0 v 60.72 h -99.16 v 131.46 h -63.73 v -491.25 c 0,-30.4 19.13,-80.11 63.73,-107.24 14.81,-9.02 32.44,-15.55 53.11,-18.04 6.07,-0.74 12.41,-1.13 19.02,-1.13 9.13,0 18.04,0 26.65,0.24 v 61.95 c -6.07,-0.21 -12.68,-0.31 -19.89,-0.31 -9.28,0 -17.9,1.73 -25.78,4.78 -33.19,12.82 -53.11,49.06 -53.11,78.18 V 0 Z" /></g><g
           transform="translate(468.785,371.045)"
           id="g44"><path
             id="path46"
             style="fill:#ffffff;fill-opacity:1;fill-rule:nonzero;stroke:none"
             d="M 0,0 172.41,360.59 V 425.1 H -51.43 v -60.72 h 163.7 L -62.44,4.59 V -61.1 h 316.07 l 15.38,62.75 z" /></g><g
           transform="translate(468.785,371.045)"
           id="g48"><path
             id="path50"
             style="fill:none;stroke:#373535;stroke-width:1;stroke-linecap:butt;stroke-linejoin:miter;stroke-miterlimit:10;stroke-dasharray:none;stroke-opacity:1"
             d="M 0,0 172.41,360.59 V 425.1 H -51.43 v -60.72 h 163.7 L -62.44,4.59 V -61.1 h 316.07 l 15.38,62.75 z" /></g><g
           transform="translate(883.975,796.145)"
           id="g52"><path
             id="path54"
             style="fill:#ffffff;fill-opacity:1;fill-rule:nonzero;stroke:none"
             d="M 0,0 -73.07,-300.67 -144.27,0 h -62.05 l 102.5,-411.9 -71.75,-310.56 58.76,-1.29 C -97.573,-643.448 55.921,-2.668 56.56,0 Z" /></g><g
           transform="translate(883.975,796.145)"
           id="g56"><path
             id="path58"
             style="fill:none;stroke:#373535;stroke-width:1;stroke-linecap:butt;stroke-linejoin:miter;stroke-miterlimit:10;stroke-dasharray:none;stroke-opacity:1"
             d="M 0,0 -73.07,-300.67 -144.27,0 h -62.05 l 102.5,-411.9 -71.75,-310.56 58.76,-1.29 C -97.573,-643.448 55.921,-2.668 56.56,0 Z" /></g></g></g></g></svg>